<svg xmlns="http://www.w3.org/2000/svg" viewBox="0 0 64 64">
  <defs>
    <linearGradient id="g" x1="0" y1="0" x2="1" y2="1">
      <stop offset="0%" stop-color="#FF7622"/>
      <stop offset="100%" stop-color="#FFBE96"/>
    </linearGradient>
  </defs>
  <rect width="64" height="64" rx="14" fill="url(#g)"/>
  <g fill="none" stroke="#fff" stroke-width="2.5" stroke-linecap="round" stroke-linejoin="round">
    <!-- Cup body -->
    <path d="M18 28h20v14a8 8 0 01-8 8h-4a8 8 0 01-8-8V28z" fill="rgba(255,255,255,0.15)"/>
    <!-- Cup handle -->
    <path d="M38 32h3a4 4 0 010 8h-3"/>
    <!-- Steam lines -->
    <path d="M24 22c0-3 4-3 4-6" opacity="0.7"/>
    <path d="M32 20c0-3 4-3 4-6" opacity="0.5"/>
    <!-- Fork tines (from steam) -->
    <line x1="28" y1="14" x2="28" y2="10" opacity="0.4"/>
    <line x1="32" y1="14" x2="32" y2="9" opacity="0.4"/>
  </g>
  <!-- "AC" text -->
  <text x="32" y="39" text-anchor="middle" font-family="Arial,sans-serif" font-weight="900" font-size="14" fill="#fff" opacity="0.9">AC</text>
</svg>